<mxfile host="65bd71144e">
    <diagram id="MQUk3Z3RDs1_jtSRNGPu" name="Page-1">
        <mxGraphModel dx="1372" dy="759" grid="1" gridSize="10" guides="1" tooltips="1" connect="1" arrows="1" fold="1" page="1" pageScale="1" pageWidth="1169" pageHeight="827" math="0" shadow="0">
            <root>
                <mxCell id="0"/>
                <mxCell id="1" parent="0"/>
                <mxCell id="34" value="" style="group" vertex="1" connectable="0" parent="1">
                    <mxGeometry x="40" y="50" width="1099" height="640" as="geometry"/>
                </mxCell>
                <mxCell id="15" value="云端数据库" style="whiteSpace=wrap;html=1;shape=mxgraph.basic.cloud_callout;fontSize=24;" vertex="1" parent="34">
                    <mxGeometry x="680" width="240" height="170" as="geometry"/>
                </mxCell>
                <mxCell id="24" value="" style="group" vertex="1" connectable="0" parent="34">
                    <mxGeometry x="355" y="368" width="190" height="82" as="geometry"/>
                </mxCell>
                <mxCell id="22" value="" style="strokeColor=#666666;html=1;labelPosition=right;align=left;spacingLeft=15;shadow=0;dashed=0;outlineConnect=0;shape=mxgraph.rack.dell.dell_poweredge_1u;fontSize=24;fillColor=#f5f5f5;gradientColor=#b3b3b3;" vertex="1" parent="24">
                    <mxGeometry width="190" height="21" as="geometry"/>
                </mxCell>
                <mxCell id="23" value="边缘计算设备" style="text;strokeColor=none;align=center;fillColor=none;html=1;verticalAlign=middle;whiteSpace=wrap;rounded=0;fontSize=24;" vertex="1" parent="24">
                    <mxGeometry x="15" y="52" width="160" height="30" as="geometry"/>
                </mxCell>
                <mxCell id="25" value="" style="group" vertex="1" connectable="0" parent="34">
                    <mxGeometry x="680" y="329" width="180" height="121" as="geometry"/>
                </mxCell>
                <mxCell id="19" value="智能网关" style="text;strokeColor=none;align=center;fillColor=none;html=1;verticalAlign=middle;whiteSpace=wrap;rounded=0;fontSize=24;" vertex="1" parent="25">
                    <mxGeometry x="30" y="91" width="120" height="30" as="geometry"/>
                </mxCell>
                <mxCell id="20" value="" style="strokeColor=#666666;html=1;labelPosition=right;align=left;spacingLeft=15;shadow=0;dashed=0;outlineConnect=0;shape=mxgraph.rack.general.switches_2;fontSize=24;fillColor=#f5f5f5;gradientColor=#b3b3b3;" vertex="1" parent="25">
                    <mxGeometry width="180" height="60" as="geometry"/>
                </mxCell>
                <mxCell id="27" value="" style="group" vertex="1" connectable="0" parent="34">
                    <mxGeometry x="390" y="510" width="140" height="130" as="geometry"/>
                </mxCell>
                <mxCell id="9" value="" style="fontColor=#0066CC;verticalAlign=top;verticalLabelPosition=bottom;labelPosition=center;align=center;html=1;outlineConnect=0;fillColor=#CCCCCC;strokeColor=#6881B3;gradientColor=none;gradientDirection=north;strokeWidth=2;shape=mxgraph.networks.security_camera;fontSize=24;" vertex="1" parent="27">
                    <mxGeometry x="20" width="100" height="75" as="geometry"/>
                </mxCell>
                <mxCell id="12" value="厨房摄像头" style="text;strokeColor=none;align=center;fillColor=none;html=1;verticalAlign=middle;whiteSpace=wrap;rounded=0;fontSize=24;" vertex="1" parent="27">
                    <mxGeometry y="100" width="140" height="30" as="geometry"/>
                </mxCell>
                <mxCell id="28" value="" style="group" vertex="1" connectable="0" parent="34">
                    <mxGeometry x="730" y="510" width="140" height="130" as="geometry"/>
                </mxCell>
                <mxCell id="8" value="" style="image;html=1;image=img/lib/clip_art/networking/Ip_Camera_128x128.png;fontSize=24;" vertex="1" parent="28">
                    <mxGeometry x="30" width="80" height="80" as="geometry"/>
                </mxCell>
                <mxCell id="11" value="客厅摄像头" style="text;strokeColor=none;align=center;fillColor=none;html=1;verticalAlign=middle;whiteSpace=wrap;rounded=0;fontSize=24;" vertex="1" parent="28">
                    <mxGeometry y="100" width="140" height="30" as="geometry"/>
                </mxCell>
                <mxCell id="29" value="" style="group" vertex="1" connectable="0" parent="34">
                    <mxGeometry y="215" width="1099" height="30" as="geometry"/>
                </mxCell>
                <mxCell id="5" value="" style="shape=link;html=1;fontSize=24;" edge="1" parent="29">
                    <mxGeometry width="100" relative="1" as="geometry">
                        <mxPoint y="15" as="sourcePoint"/>
                        <mxPoint x="930" y="15" as="targetPoint"/>
                    </mxGeometry>
                </mxCell>
                <mxCell id="10" value="公网BUS" style="text;strokeColor=none;align=center;fillColor=none;html=1;verticalAlign=middle;whiteSpace=wrap;rounded=0;fontSize=24;" vertex="1" parent="29">
                    <mxGeometry x="959" width="140" height="30" as="geometry"/>
                </mxCell>
                <mxCell id="30" value="" style="group" vertex="1" connectable="0" parent="34">
                    <mxGeometry x="70" y="510" width="140" height="130" as="geometry"/>
                </mxCell>
                <mxCell id="7" value="" style="fontColor=#0066CC;verticalAlign=top;verticalLabelPosition=bottom;labelPosition=center;align=center;html=1;outlineConnect=0;fillColor=#CCCCCC;strokeColor=#6881B3;gradientColor=none;gradientDirection=north;strokeWidth=2;shape=mxgraph.networks.security_camera;fontSize=24;" vertex="1" parent="30">
                    <mxGeometry x="20" width="100" height="75" as="geometry"/>
                </mxCell>
                <mxCell id="13" value="门口摄像头" style="text;strokeColor=none;align=center;fillColor=none;html=1;verticalAlign=middle;whiteSpace=wrap;rounded=0;fontSize=24;" vertex="1" parent="30">
                    <mxGeometry y="100" width="140" height="30" as="geometry"/>
                </mxCell>
                <mxCell id="33" value="" style="group" vertex="1" connectable="0" parent="34">
                    <mxGeometry x="105.5" y="300" width="100" height="150" as="geometry"/>
                </mxCell>
                <mxCell id="31" value="" style="sketch=0;outlineConnect=0;gradientColor=#b3b3b3;fillColor=#f5f5f5;strokeColor=#666666;dashed=0;verticalLabelPosition=bottom;verticalAlign=top;align=center;html=1;fontSize=12;fontStyle=0;aspect=fixed;pointerEvents=1;shape=mxgraph.aws4.iot_thing_plc;" vertex="1" parent="33">
                    <mxGeometry x="4.5" width="91" height="91" as="geometry"/>
                </mxCell>
                <mxCell id="32" value="控制器" style="text;strokeColor=none;align=center;fillColor=none;html=1;verticalAlign=middle;whiteSpace=wrap;rounded=0;fontSize=24;" vertex="1" parent="33">
                    <mxGeometry y="120" width="100" height="30" as="geometry"/>
                </mxCell>
            </root>
        </mxGraphModel>
    </diagram>
</mxfile>